  0
SECTION
  2
BLOCKS
  0
ENDSEC
  0
SECTION
  2
ENTITIES
  0
LINE
  8
0
 10
126.729
 20
14.469
 11
126.782
 21
14.4595
  0
LINE
  8
0
 10
126.782
 20
14.4595
 11
126.865
 21
14.9237
  0
LINE
  8
0
 10
126.865
 20
14.9237
 11
133.678
 21
37.6268
  0
LINE
  8
0
 10
133.678
 20
37.6268
 11
133.806
 21
37.6268
  0
LINE
  8
0
 10
133.806
 20
37.6268
 11
133.806
 21
38.0535
  0
LINE
  8
0
 10
133.806
 20
38.0535
 11
133.929
 21
38.462
  0
LINE
  8
0
 10
133.929
 20
38.462
 11
133.806
 21
38.4988
  0
LINE
  8
0
 10
133.806
 20
38.4988
 11
133.81
 21
101.921
  0
LINE
  8
0
 10
133.81
 20
101.921
 11
133.81
 21
101.921
  0
LINE
  8
0
 10
133.81
 20
101.921
 11
133.81
 21
102.921
  0
LINE
  8
0
 10
133.81
 20
102.921
 11
83.8
 21
102.921
  0
LINE
  8
0
 10
83.8
 20
102.921
 11
83.8
 21
105.302
  0
LINE
  8
0
 10
83.8
 20
105.302
 11
64.75
 21
105.302
  0
LINE
  8
0
 10
64.75
 20
105.302
 11
64.75
 21
110.064
  0
LINE
  8
0
 10
64.75
 20
110.064
 11
44.7
 21
110.064
  0
LINE
  8
0
 10
44.7
 20
110.064
 11
44.7
 21
105.302
  0
LINE
  8
0
 10
44.7
 20
105.302
 11
25.65
 21
105.302
  0
LINE
  8
0
 10
25.65
 20
105.302
 11
25.65
 21
95.7768
  0
LINE
  8
0
 10
25.65
 20
95.7768
 11
6.59999
 21
95.7768
  0
LINE
  8
0
 10
6.59999
 20
95.7768
 11
6.59999
 21
37.6268
  0
LINE
  8
0
 10
6.59999
 20
37.6268
 11
26.65
 21
37.6268
  0
LINE
  8
0
 10
26.65
 20
37.6268
 11
26.65
 21
47.1518
  0
LINE
  8
0
 10
26.65
 20
47.1518
 11
45.7
 21
47.1518
  0
LINE
  8
0
 10
45.7
 20
47.1518
 11
45.7
 21
51.9143
  0
LINE
  8
0
 10
45.7
 20
51.9143
 11
63.75
 21
51.9143
  0
LINE
  8
0
 10
63.75
 20
51.9143
 11
63.75
 21
26.2653
  0
LINE
  8
0
 10
63.75
 20
26.2653
 11
63.6693
 21
25.8171
  0
LINE
  8
0
 10
63.6693
 20
25.8171
 11
63.75
 21
25.8026
  0
LINE
  8
0
 10
63.75
 20
25.8026
 11
63.75
 21
25.7206
  0
LINE
  8
0
 10
63.75
 20
25.7206
 11
64.2055
 21
25.7206
  0
LINE
  8
0
 10
64.2055
 20
25.7206
 11
126.262
 21
14.553
  0
LINE
  8
0
 10
126.262
 20
14.553
 11
126.714
 21
14.4176
  0
LINE
  8
0
 10
126.714
 20
14.4176
 11
126.729
 21
14.469
  0
ENDSEC
  0
SECTION
  2
OBJECTS
  0
DICTIONARY
  0
ENDSEC
  0
EOF
