  0
SECTION
  2
HEADER
  9
$ANGBASE
  50
0.0
  9
$ANGDIR
  70
1
  9
$MEASUREMENT
  70
1
  0
ENDSEC
  0
SECTION
  2
TABLES
  0
TABLE
  2
LTYPE
  70
4
  0
LTYPE
  5
40F
  2
CONTINUOUS
  70
0
  3
Solid line
  72
65
  73
0
  40
0.0
  0
LTYPE
  5
410
  2
DASHDOT
 70
0
  3
Dash Dot ____ _ ____ _
 72
65
 73
4
 40
2.0
 49
1.25
 49
-0.25
 49
0.25
 49
-0.25
  0
LTYPE
  5
411
  2
DASHED
 70
0
  3
Dashed __ __ __ __ __
 72
65
 73
2
 40
0.75
 49
0.5
 49
-0.25
  0
LTYPE
  5
43B
  2
DOTTED
 70
0
  3
Dotted .  .  .  .
 72
65
 73
2
 40
0.2
 49
0.0
 49
-0.2
  0
ENDTAB
  0
TABLE
  2
STYLE
  70
4
  0
STYLE
  2
KICAD
  70
0
  40
0
  41
1
  42
1
  50
0
  71
0
  3
isocp.shx
  0
STYLE
  2
KICADB
  70
0
  40
0
  41
1
  42
1
  50
0
  71
0
  3
isocp.shx
  0
STYLE
  2
KICADI
  70
0
  40
0
  41
1
  42
1
  50
15
  71
0
  3
isocp.shx
  0
STYLE
  2
KICADBI
  70
0
  40
0
  41
1
  42
1
  50
15
  71
0
  3
isocp.shx
  0
ENDTAB
  0
TABLE
  2
LAYER
  70
1
  0
LAYER
  2
BLACK
  70
0
  62
7
  6
CONTINUOUS
  0
ENDTAB
  0
ENDSEC
  0
SECTION
  2
ENTITIES
0
LINE
8
BLACK
6
CONTINUOUS
10
154.6320670000000064
20
-40.7756529999999984
11
154.6455969999999809
21
-40.7891830000000013
0
LINE
8
BLACK
6
CONTINUOUS
10
154.6455969999999809
20
-40.7891830000000013
11
154.6474999999999795
21
-40.7987499999999983
0
LINE
8
BLACK
6
CONTINUOUS
10
154.6474999999999795
20
-40.7987499999999983
11
154.6474999999999795
21
-45.5362499999999955
0
LINE
8
BLACK
6
CONTINUOUS
10
154.6474999999999795
20
-45.5362499999999955
11
173.6724999999999852
21
-45.5362499999999955
0
LINE
8
BLACK
6
CONTINUOUS
10
173.6724999999999852
20
-45.5362499999999955
11
173.6820669999999893
21
-45.5381530000000012
0
LINE
8
BLACK
6
CONTINUOUS
10
173.6820669999999893
20
-45.5381530000000012
11
173.6955969999999922
21
-45.551682999999997
0
LINE
8
BLACK
6
CONTINUOUS
10
173.6955969999999922
20
-45.551682999999997
11
173.6974999999999909
21
-45.5612500000000011
0
LINE
8
BLACK
6
CONTINUOUS
10
173.6974999999999909
20
-45.5612500000000011
11
173.6974999999999909
21
-47.9174999999999969
0
LINE
8
BLACK
6
CONTINUOUS
10
173.6974999999999909
20
-47.9174999999999969
11
192.7224999999999966
21
-47.9174999999999969
0
LINE
8
BLACK
6
CONTINUOUS
10
192.7224999999999966
20
-47.9174999999999969
11
223.682723999999979
21
-47.9174999999999969
0
LINE
8
BLACK
6
CONTINUOUS
10
223.682723999999979
20
-47.9174999999999969
11
223.6922909999999831
21
-47.9194029999999955
0
LINE
8
BLACK
6
CONTINUOUS
10
223.6922909999999831
20
-47.9194029999999955
11
223.705820999999986
21
-47.9329329999999985
0
LINE
8
BLACK
6
CONTINUOUS
10
223.705820999999986
20
-47.9329329999999985
11
223.7058219999999835
21
-47.9329350000000005
0
LINE
8
BLACK
6
CONTINUOUS
10
223.7058219999999835
20
-47.9329350000000005
11
223.7077239999999847
21
-47.9425019999999975
0
LINE
8
BLACK
6
CONTINUOUS
10
223.7077239999999847
20
-47.9425019999999975
11
223.7037499999999852
21
-112.2362519999999932
0
LINE
8
BLACK
6
CONTINUOUS
10
223.7037499999999852
20
-112.2362519999999932
11
223.7030399999999872
21
-112.239816999999988
0
LINE
8
BLACK
6
CONTINUOUS
10
223.7030399999999872
20
-112.239816999999988
11
223.7026949999999772
21
-112.243434999999991
0
LINE
8
BLACK
6
CONTINUOUS
10
223.7026949999999772
20
-112.243434999999991
11
216.7748259999999902
21
-135.3300439999999867
0
LINE
8
BLACK
6
CONTINUOUS
10
216.7748259999999902
20
-135.3300439999999867
11
216.7721479999999872
21
-135.3350899999999797
0
LINE
8
BLACK
6
CONTINUOUS
10
216.7721479999999872
20
-135.3350899999999797
11
216.7719189999999969
21
-135.3363659999999982
0
LINE
8
BLACK
6
CONTINUOUS
10
216.7719189999999969
20
-135.3363659999999982
11
216.7712099999999964
21
-135.3368580000000065
0
LINE
8
BLACK
6
CONTINUOUS
10
216.7712099999999964
20
-135.3368580000000065
11
216.7702539999999942
21
-135.3386610000000019
0
LINE
8
BLACK
6
CONTINUOUS
10
216.7702539999999942
20
-135.3386610000000019
11
216.7629849999999863
21
-135.3425739999999848
0
LINE
8
BLACK
6
CONTINUOUS
10
216.7629849999999863
20
-135.3425739999999848
11
216.7562059999999917
21
-135.3472849999999994
0
LINE
8
BLACK
6
CONTINUOUS
10
216.7562059999999917
20
-135.3472849999999994
11
216.7541640000000029
21
-135.3473219999999912
0
LINE
8
BLACK
6
CONTINUOUS
10
216.7541640000000029
20
-135.3473219999999912
11
216.753405999999984
21
-135.3477309999999818
0
LINE
8
BLACK
6
CONTINUOUS
10
216.753405999999984
20
-135.3477309999999818
11
216.7521659999999883
21
-135.3473589999999831
0
LINE
8
BLACK
6
CONTINUOUS
10
216.7521659999999883
20
-135.3473589999999831
11
216.746454
21
-135.3474640000000022
0
LINE
8
BLACK
6
CONTINUOUS
10
216.746454
20
-135.3474640000000022
11
154.6180719999999837
21
-124.1671049999999923
0
LINE
8
BLACK
6
CONTINUOUS
10
154.6180719999999837
20
-124.1671049999999923
11
154.6142349999999794
21
-124.1655969999999911
0
LINE
8
BLACK
6
CONTINUOUS
10
154.6142349999999794
20
-124.1655969999999911
11
154.6129329999999982
21
-124.1655969999999911
0
LINE
8
BLACK
6
CONTINUOUS
10
154.6129329999999982
20
-124.1655969999999911
11
154.6120889999999974
21
-124.1647529999999904
0
LINE
8
BLACK
6
CONTINUOUS
10
154.6120889999999974
20
-124.1647529999999904
11
154.6089939999999956
21
-124.1635369999999909
0
LINE
8
BLACK
6
CONTINUOUS
10
154.6089939999999956
20
-124.1635369999999909
11
154.6047120000000064
21
-124.1573759999999993
0
LINE
8
BLACK
6
CONTINUOUS
10
154.6047120000000064
20
-124.1573759999999993
11
154.5994029999999952
21
-124.1520669999999882
0
LINE
8
BLACK
6
CONTINUOUS
10
154.5994029999999952
20
-124.1520669999999882
11
154.5987529999999879
21
-124.1488030000000009
0
LINE
8
BLACK
6
CONTINUOUS
10
154.5987529999999879
20
-124.1488030000000009
11
154.5980739999999969
21
-124.1478249999999974
0
LINE
8
BLACK
6
CONTINUOUS
10
154.5980739999999969
20
-124.1478249999999974
11
154.5983039999999846
21
-124.1465439999999916
0
LINE
8
BLACK
6
CONTINUOUS
10
154.5983039999999846
20
-124.1465439999999916
11
154.5974999999999966
21
-124.1424999999999983
0
LINE
8
BLACK
6
CONTINUOUS
10
154.5974999999999966
20
-124.1424999999999983
11
154.5974999999999966
21
-97.9737499999999955
0
LINE
8
BLACK
6
CONTINUOUS
10
154.5974999999999966
20
-97.9737499999999955
11
135.5974999999999966
21
-97.9737499999999955
0
LINE
8
BLACK
6
CONTINUOUS
10
135.5974999999999966
20
-97.9737499999999955
11
135.5974999999999966
21
-102.7112499999999926
0
LINE
8
BLACK
6
CONTINUOUS
10
135.5974999999999966
20
-102.7112499999999926
11
135.5955969999999979
21
-102.7208169999999967
0
LINE
8
BLACK
6
CONTINUOUS
10
135.5955969999999979
20
-102.7208169999999967
11
135.582066999999995
21
-102.7343469999999996
0
LINE
8
BLACK
6
CONTINUOUS
10
135.582066999999995
20
-102.7343469999999996
11
135.5724999999999909
21
-102.7362499999999983
0
LINE
8
BLACK
6
CONTINUOUS
10
135.5724999999999909
20
-102.7362499999999983
11
116.5474999999999994
21
-102.7362499999999983
0
LINE
8
BLACK
6
CONTINUOUS
10
116.5474999999999994
20
-102.7362499999999983
11
116.5474999999999994
21
-112.2362499999999983
0
LINE
8
BLACK
6
CONTINUOUS
10
116.5474999999999994
20
-112.2362499999999983
11
116.5455970000000008
21
-112.2458159999999907
0
LINE
8
BLACK
6
CONTINUOUS
10
116.5455970000000008
20
-112.2458159999999907
11
116.5455970000000008
21
-112.2458169999999882
0
LINE
8
BLACK
6
CONTINUOUS
10
116.5455970000000008
20
-112.2458169999999882
11
116.5320669999999978
21
-112.2593469999999911
0
LINE
8
BLACK
6
CONTINUOUS
10
116.5320669999999978
20
-112.2593469999999911
11
116.5224999999999937
21
-112.2612499999999898
0
LINE
8
BLACK
6
CONTINUOUS
10
116.5224999999999937
20
-112.2612499999999898
11
97.4724999999999966
21
-112.2612499999999898
0
LINE
8
BLACK
6
CONTINUOUS
10
97.4724999999999966
20
-112.2612499999999898
11
97.4629329999999925
21
-112.2593469999999911
0
LINE
8
BLACK
6
CONTINUOUS
10
97.4629329999999925
20
-112.2593469999999911
11
97.4494029999999896
21
-112.2458169999999882
0
LINE
8
BLACK
6
CONTINUOUS
10
97.4494029999999896
20
-112.2458169999999882
11
97.4494029999999896
21
-112.2458159999999907
0
LINE
8
BLACK
6
CONTINUOUS
10
97.4494029999999896
20
-112.2458159999999907
11
97.4474999999999909
21
-112.2362499999999983
0
LINE
8
BLACK
6
CONTINUOUS
10
97.4474999999999909
20
-112.2362499999999983
11
97.4474999999999909
21
-55.0862499999999997
0
LINE
8
BLACK
6
CONTINUOUS
10
97.4474999999999909
20
-55.0862499999999997
11
97.4494029999999896
21
-55.0766829999999956
0
LINE
8
BLACK
6
CONTINUOUS
10
97.4494029999999896
20
-55.0766829999999956
11
97.4629329999999925
21
-55.0631529999999998
0
LINE
8
BLACK
6
CONTINUOUS
10
97.4629329999999925
20
-55.0631529999999998
11
97.4724999999999966
21
-55.061249999999994
0
LINE
8
BLACK
6
CONTINUOUS
10
97.4724999999999966
20
-55.061249999999994
11
116.4974999999999881
21
-55.061249999999994
0
LINE
8
BLACK
6
CONTINUOUS
10
116.4974999999999881
20
-55.061249999999994
11
116.4974999999999881
21
-45.5612500000000011
0
LINE
8
BLACK
6
CONTINUOUS
10
116.4974999999999881
20
-45.5612500000000011
11
116.4994030000000009
21
-45.551682999999997
0
LINE
8
BLACK
6
CONTINUOUS
10
116.4994030000000009
20
-45.551682999999997
11
116.5129329999999896
21
-45.5381530000000012
0
LINE
8
BLACK
6
CONTINUOUS
10
116.5129329999999896
20
-45.5381530000000012
11
116.5224999999999937
21
-45.5362499999999955
0
LINE
8
BLACK
6
CONTINUOUS
10
116.5224999999999937
20
-45.5362499999999955
11
135.5474999999999852
21
-45.5362499999999955
0
LINE
8
BLACK
6
CONTINUOUS
10
135.5474999999999852
20
-45.5362499999999955
11
135.5474999999999852
21
-40.7987499999999983
0
LINE
8
BLACK
6
CONTINUOUS
10
135.5474999999999852
20
-40.7987499999999983
11
135.5494029999999839
21
-40.7891830000000013
0
LINE
8
BLACK
6
CONTINUOUS
10
135.5494029999999839
20
-40.7891830000000013
11
135.5629329999999868
21
-40.7756529999999984
0
LINE
8
BLACK
6
CONTINUOUS
10
135.5629329999999868
20
-40.7756529999999984
11
135.5724999999999909
21
-40.7737499999999997
0
LINE
8
BLACK
6
CONTINUOUS
10
135.5724999999999909
20
-40.7737499999999997
11
154.6225000000000023
21
-40.7737499999999997
0
LINE
8
BLACK
6
CONTINUOUS
10
154.6225000000000023
20
-40.7737499999999997
11
154.6320670000000064
21
-40.7756529999999984
0
LINE
8
BLACK
6
CONTINUOUS
10
135.5974999999999966
20
-40.8237499999999969
11
135.5974999999999966
21
-45.5612500000000011
0
LINE
8
BLACK
6
CONTINUOUS
10
135.5974999999999966
20
-45.5612500000000011
11
135.5955969999999979
21
-45.5708169999999981
0
LINE
8
BLACK
6
CONTINUOUS
10
135.5955969999999979
20
-45.5708169999999981
11
135.582066999999995
21
-45.5843470000000011
0
LINE
8
BLACK
6
CONTINUOUS
10
135.582066999999995
20
-45.5843470000000011
11
135.5724999999999909
21
-45.5862499999999997
0
LINE
8
BLACK
6
CONTINUOUS
10
135.5724999999999909
20
-45.5862499999999997
11
116.5474999999999994
21
-45.5862499999999997
0
LINE
8
BLACK
6
CONTINUOUS
10
116.5474999999999994
20
-45.5862499999999997
11
116.5474999999999994
21
-55.0862499999999997
0
LINE
8
BLACK
6
CONTINUOUS
10
116.5474999999999994
20
-55.0862499999999997
11
116.5455970000000008
21
-55.0958169999999967
0
LINE
8
BLACK
6
CONTINUOUS
10
116.5455970000000008
20
-55.0958169999999967
11
116.5320669999999978
21
-55.1093469999999996
0
LINE
8
BLACK
6
CONTINUOUS
10
116.5320669999999978
20
-55.1093469999999996
11
116.5224999999999937
21
-55.1112499999999983
0
LINE
8
BLACK
6
CONTINUOUS
10
116.5224999999999937
20
-55.1112499999999983
11
97.4975000000000023
21
-55.1112499999999983
0
LINE
8
BLACK
6
CONTINUOUS
10
97.4975000000000023
20
-55.1112499999999983
11
97.4975000000000023
21
-112.2112499999999926
0
LINE
8
BLACK
6
CONTINUOUS
10
97.4975000000000023
20
-112.2112499999999926
11
116.4974999999999881
21
-112.2112499999999926
0
LINE
8
BLACK
6
CONTINUOUS
10
116.4974999999999881
20
-112.2112499999999926
11
116.4974999999999881
21
-102.7112499999999926
0
LINE
8
BLACK
6
CONTINUOUS
10
116.4974999999999881
20
-102.7112499999999926
11
116.4994030000000009
21
-102.7016829999999885
0
LINE
8
BLACK
6
CONTINUOUS
10
116.4994030000000009
20
-102.7016829999999885
11
116.5129329999999896
21
-102.6881529999999998
0
LINE
8
BLACK
6
CONTINUOUS
10
116.5129329999999896
20
-102.6881529999999998
11
116.5224999999999937
21
-102.6862500000000011
0
LINE
8
BLACK
6
CONTINUOUS
10
116.5224999999999937
20
-102.6862500000000011
11
135.5474999999999852
21
-102.6862500000000011
0
LINE
8
BLACK
6
CONTINUOUS
10
135.5474999999999852
20
-102.6862500000000011
11
135.5474999999999852
21
-97.9487499999999898
0
LINE
8
BLACK
6
CONTINUOUS
10
135.5474999999999852
20
-97.9487499999999898
11
135.5494029999999839
21
-97.9391829999999999
0
LINE
8
BLACK
6
CONTINUOUS
10
135.5494029999999839
20
-97.9391829999999999
11
135.5629329999999868
21
-97.925652999999997
0
LINE
8
BLACK
6
CONTINUOUS
10
135.5629329999999868
20
-97.925652999999997
11
135.5724999999999909
21
-97.9237499999999983
0
LINE
8
BLACK
6
CONTINUOUS
10
135.5724999999999909
20
-97.9237499999999983
11
154.6225000000000023
21
-97.9237499999999983
0
LINE
8
BLACK
6
CONTINUOUS
10
154.6225000000000023
20
-97.9237499999999983
11
154.6320670000000064
21
-97.925652999999997
0
LINE
8
BLACK
6
CONTINUOUS
10
154.6320670000000064
20
-97.925652999999997
11
154.6455969999999809
21
-97.9391829999999999
0
LINE
8
BLACK
6
CONTINUOUS
10
154.6455969999999809
20
-97.9391829999999999
11
154.6474999999999795
21
-97.9487499999999898
0
LINE
8
BLACK
6
CONTINUOUS
10
154.6474999999999795
20
-97.9487499999999898
11
154.6474999999999795
21
-124.1215969999999942
0
LINE
8
BLACK
6
CONTINUOUS
10
154.6474999999999795
20
-124.1215969999999942
11
216.733349000000004
21
-135.2943019999999876
0
LINE
8
BLACK
6
CONTINUOUS
10
216.733349000000004
20
-135.2943019999999876
11
223.6537500000000023
21
-112.2325779999999895
0
LINE
8
BLACK
6
CONTINUOUS
10
223.6537500000000023
20
-112.2325779999999895
11
223.6577219999999784
21
-47.9675000000000011
0
LINE
8
BLACK
6
CONTINUOUS
10
223.6577219999999784
20
-47.9675000000000011
11
192.7224999999999966
21
-47.9675000000000011
0
LINE
8
BLACK
6
CONTINUOUS
10
192.7224999999999966
20
-47.9675000000000011
11
173.6724999999999852
21
-47.9675000000000011
0
LINE
8
BLACK
6
CONTINUOUS
10
173.6724999999999852
20
-47.9675000000000011
11
173.6629329999999811
21
-47.9655969999999954
0
LINE
8
BLACK
6
CONTINUOUS
10
173.6629329999999811
20
-47.9655969999999954
11
173.6494029999999782
21
-47.9520669999999996
0
LINE
8
BLACK
6
CONTINUOUS
10
173.6494029999999782
20
-47.9520669999999996
11
173.6474999999999795
21
-47.9424999999999955
0
LINE
8
BLACK
6
CONTINUOUS
10
173.6474999999999795
20
-47.9424999999999955
11
173.6474999999999795
21
-45.5862499999999997
0
LINE
8
BLACK
6
CONTINUOUS
10
173.6474999999999795
20
-45.5862499999999997
11
154.6225000000000023
21
-45.5862499999999997
0
LINE
8
BLACK
6
CONTINUOUS
10
154.6225000000000023
20
-45.5862499999999997
11
154.6129329999999982
21
-45.5843470000000011
0
LINE
8
BLACK
6
CONTINUOUS
10
154.6129329999999982
20
-45.5843470000000011
11
154.5994029999999952
21
-45.5708169999999981
0
LINE
8
BLACK
6
CONTINUOUS
10
154.5994029999999952
20
-45.5708169999999981
11
154.5974999999999966
21
-45.5612500000000011
0
LINE
8
BLACK
6
CONTINUOUS
10
154.5974999999999966
20
-45.5612500000000011
11
154.5974999999999966
21
-40.8237499999999969
0
LINE
8
BLACK
6
CONTINUOUS
10
154.5974999999999966
20
-40.8237499999999969
11
135.5974999999999966
21
-40.8237499999999969
0
CIRCLE
8
BLACK
10
160.2797070000000019
20
-114.655896999999996
40
0.875
0
CIRCLE
8
BLACK
10
165.340375999999992
20
-115.0986479999999972
40
2.
0
CIRCLE
8
BLACK
10
170.4010449999999821
20
-115.5413989999999984
40
0.875
0
CIRCLE
8
BLACK
10
161.7662499999999852
20
-112.2362499999999983
40
0.75
0
CIRCLE
8
BLACK
10
168.9145019999999988
20
-117.9610459999999961
40
0.75
0
CIRCLE
8
BLACK
10
162.3672909999999945
20
-119.937940999999995
40
0.75
0
CIRCLE
8
BLACK
10
168.3134609999999896
20
-110.2593549999999993
40
0.75
0
CIRCLE
8
BLACK
10
101.9174999999999898
20
-64.6112499999999983
40
0.875
0
CIRCLE
8
BLACK
10
106.9974999999999881
20
-64.6112499999999983
40
2.
0
CIRCLE
8
BLACK
10
112.0775000000000006
20
-64.6112499999999983
40
0.875
0
CIRCLE
8
BLACK
10
103.1875
20
-62.0712499999999991
40
0.75
0
CIRCLE
8
BLACK
10
110.8074999999999903
20
-67.1512499999999903
40
0.75
0
CIRCLE
8
BLACK
10
104.457499999999996
20
-69.6912499999999966
40
0.75
0
CIRCLE
8
BLACK
10
109.5374999999999943
20
-59.53125
40
0.75
0
CIRCLE
8
BLACK
10
181.5057280000000048
20
-116.8983779999999939
40
0.875
0
CIRCLE
8
BLACK
10
186.5085509999999829
20
-117.78051099999999
40
2.
0
CIRCLE
8
BLACK
10
191.5113739999999893
20
-118.6626440000000002
40
0.875
0
CIRCLE
8
BLACK
10
183.1974999999999909
20
-114.6174999999999926
40
0.75
0
CIRCLE
8
BLACK
10
189.8196020000000033
20
-120.9435220000000015
40
0.75
0
CIRCLE
8
BLACK
10
183.1250069999999823
20
-122.34226799999999
40
0.75
0
CIRCLE
8
BLACK
10
189.8920949999999834
20
-113.2187539999999899
40
0.75
0
CIRCLE
8
BLACK
10
159.0674999999999955
20
-55.0862499999999997
40
0.875
0
CIRCLE
8
BLACK
10
164.1474999999999795
20
-55.0862499999999997
40
2.
0
CIRCLE
8
BLACK
10
169.227499999999992
20
-55.0862499999999997
40
0.875
0
CIRCLE
8
BLACK
10
160.3375000000000057
20
-52.5462500000000006
40
0.75
0
CIRCLE
8
BLACK
10
167.9574999999999818
20
-57.6262499999999989
40
0.75
0
CIRCLE
8
BLACK
10
161.6074999999999875
20
-60.166249999999998
40
0.75
0
CIRCLE
8
BLACK
10
166.6875
20
-50.0062499999999943
40
0.75
0
CIRCLE
8
BLACK
10
178.1174999999999784
20
-57.467499999999994
40
0.875
0
CIRCLE
8
BLACK
10
183.1974999999999909
20
-57.467499999999994
40
2.
0
CIRCLE
8
BLACK
10
188.2775000000000034
20
-57.467499999999994
40
0.875
0
CIRCLE
8
BLACK
10
179.3874999999999886
20
-54.9274999999999949
40
0.75
0
CIRCLE
8
BLACK
10
187.0074999999999932
20
-60.0075000000000003
40
0.75
0
CIRCLE
8
BLACK
10
180.6574999999999989
20
-62.5474999999999994
40
0.75
0
CIRCLE
8
BLACK
10
185.7374999999999829
20
-52.3874999999999957
40
0.75
0
CIRCLE
8
BLACK
10
159.0674999999999955
20
-93.1862500000000011
40
0.875
0
CIRCLE
8
BLACK
10
164.1474999999999795
20
-93.1862500000000011
40
2.
0
CIRCLE
8
BLACK
10
169.227499999999992
20
-93.1862500000000011
40
0.875
0
CIRCLE
8
BLACK
10
160.3375000000000057
20
-90.6462499999999949
40
0.75
0
CIRCLE
8
BLACK
10
167.9574999999999818
20
-95.7262499999999932
40
0.75
0
CIRCLE
8
BLACK
10
161.6074999999999875
20
-98.2662499999999994
40
0.75
0
CIRCLE
8
BLACK
10
166.6875
20
-88.1062500000000028
40
0.75
0
CIRCLE
8
BLACK
10
202.74462299999999
20
-121.5047519999999963
40
0.875
0
CIRCLE
8
BLACK
10
207.6515269999999873
20
-122.8195529999999991
40
2.
0
CIRCLE
8
BLACK
10
212.5584309999999846
20
-124.1343539999999876
40
0.875
0
CIRCLE
8
BLACK
10
204.6287499999999966
20
-119.3799999999999955
40
0.75
0
CIRCLE
8
BLACK
10
210.674303999999978
20
-126.2591059999999885
40
0.75
0
CIRCLE
8
BLACK
10
203.8832740000000001
20
-127.0690559999999891
40
0.75
0
CIRCLE
8
BLACK
10
211.4197800000000029
20
-118.5700499999999948
40
0.75
0
CIRCLE
8
BLACK
10
178.1174999999999784
20
-95.5674999999999955
40
0.875
0
CIRCLE
8
BLACK
10
183.1974999999999909
20
-95.5674999999999955
40
2.
0
CIRCLE
8
BLACK
10
188.2775000000000034
20
-95.5674999999999955
40
0.875
0
CIRCLE
8
BLACK
10
179.3874999999999886
20
-93.0274999999999892
40
0.75
0
CIRCLE
8
BLACK
10
187.0074999999999932
20
-98.1075000000000017
40
0.75
0
CIRCLE
8
BLACK
10
180.6574999999999989
20
-100.6474999999999937
40
0.75
0
CIRCLE
8
BLACK
10
185.7374999999999829
20
-90.4874999999999972
40
0.75
0
CIRCLE
8
BLACK
10
173.1724999999999852
20
-102.6862500000000011
40
1.0999999999999999
0
CIRCLE
8
BLACK
10
140.0174999999999841
20
-50.3237499999999969
40
0.875
0
CIRCLE
8
BLACK
10
145.0974999999999966
20
-50.3237499999999969
40
2.
0
CIRCLE
8
BLACK
10
150.1774999999999807
20
-50.3237499999999969
40
0.875
0
CIRCLE
8
BLACK
10
141.2874999999999943
20
-47.7837499999999977
40
0.75
0
CIRCLE
8
BLACK
10
148.9074999999999989
20
-52.863749999999996
40
0.75
0
CIRCLE
8
BLACK
10
142.5575000000000045
20
-55.4037499999999952
40
0.75
0
CIRCLE
8
BLACK
10
147.6374999999999886
20
-45.2437499999999986
40
0.75
0
CIRCLE
8
BLACK
10
222.0524999999999807
20
-109.196249999999992
40
0.4
0
CIRCLE
8
BLACK
10
215.0524999999999807
20
-109.196249999999992
40
0.4
0
CIRCLE
8
BLACK
10
117.0724999999999909
20
-83.6862500000000011
40
1.0999999999999999
0
CIRCLE
8
BLACK
10
140.0174999999999841
20
-69.3737500000000011
40
0.875
0
CIRCLE
8
BLACK
10
145.0974999999999966
20
-69.3737500000000011
40
2.
0
CIRCLE
8
BLACK
10
150.1774999999999807
20
-69.3737500000000011
40
0.875
0
CIRCLE
8
BLACK
10
141.2874999999999943
20
-66.8337499999999949
40
0.75
0
CIRCLE
8
BLACK
10
148.9074999999999989
20
-71.9137499999999932
40
0.75
0
CIRCLE
8
BLACK
10
142.5575000000000045
20
-74.4537499999999994
40
0.75
0
CIRCLE
8
BLACK
10
147.6374999999999886
20
-64.2937500000000028
40
0.75
0
CIRCLE
8
BLACK
10
120.9675000000000011
20
-74.1362499999999898
40
0.875
0
CIRCLE
8
BLACK
10
126.0474999999999994
20
-74.1362499999999898
40
2.
0
CIRCLE
8
BLACK
10
131.1274999999999977
20
-74.1362499999999898
40
0.875
0
CIRCLE
8
BLACK
10
122.2374999999999972
20
-71.5962499999999977
40
0.75
0
CIRCLE
8
BLACK
10
129.8574999999999875
20
-76.676249999999996
40
0.75
0
CIRCLE
8
BLACK
10
123.5074999999999932
20
-79.2162500000000023
40
0.75
0
CIRCLE
8
BLACK
10
128.5875000000000057
20
-69.0562499999999915
40
0.75
0
CIRCLE
8
BLACK
10
154.1724999999999852
20
-78.9862499999999983
40
1.0999999999999999
0
CIRCLE
8
BLACK
10
140.0174999999999841
20
-88.4237499999999983
40
0.875
0
CIRCLE
8
BLACK
10
145.0974999999999966
20
-88.4237499999999983
40
2.
0
CIRCLE
8
BLACK
10
150.1774999999999807
20
-88.4237499999999983
40
0.875
0
CIRCLE
8
BLACK
10
141.2874999999999943
20
-85.883749999999992
40
0.75
0
CIRCLE
8
BLACK
10
148.9074999999999989
20
-90.9637499999999903
40
0.75
0
CIRCLE
8
BLACK
10
142.5575000000000045
20
-93.5037499999999966
40
0.75
0
CIRCLE
8
BLACK
10
147.6374999999999886
20
-83.34375
40
0.75
0
CIRCLE
8
BLACK
10
194.0724999999999909
20
-52.6862500000000011
40
1.0999999999999999
0
CIRCLE
8
BLACK
10
101.9174999999999898
20
-83.6612499999999955
40
0.875
0
CIRCLE
8
BLACK
10
106.9974999999999881
20
-83.6612499999999955
40
2.
0
CIRCLE
8
BLACK
10
112.0775000000000006
20
-83.6612499999999955
40
0.875
0
CIRCLE
8
BLACK
10
103.1875
20
-81.1212500000000034
40
0.75
0
CIRCLE
8
BLACK
10
110.8074999999999903
20
-86.2012500000000017
40
0.75
0
CIRCLE
8
BLACK
10
104.457499999999996
20
-88.7412499999999937
40
0.75
0
CIRCLE
8
BLACK
10
109.5374999999999943
20
-78.5812499999999972
40
0.75
0
CIRCLE
8
BLACK
10
120.9675000000000011
20
-55.0862499999999997
40
0.875
0
CIRCLE
8
BLACK
10
126.0474999999999994
20
-55.0862499999999997
40
2.
0
CIRCLE
8
BLACK
10
131.1274999999999977
20
-55.0862499999999997
40
0.875
0
CIRCLE
8
BLACK
10
122.2374999999999972
20
-52.5462500000000006
40
0.75
0
CIRCLE
8
BLACK
10
129.8574999999999875
20
-57.6262499999999989
40
0.75
0
CIRCLE
8
BLACK
10
123.5074999999999932
20
-60.166249999999998
40
0.75
0
CIRCLE
8
BLACK
10
128.5875000000000057
20
-50.0062499999999943
40
0.75
0
CIRCLE
8
BLACK
10
101.9174999999999898
20
-102.7112499999999926
40
0.875
0
CIRCLE
8
BLACK
10
106.9974999999999881
20
-102.7112499999999926
40
2.
0
CIRCLE
8
BLACK
10
112.0775000000000006
20
-102.7112499999999926
40
0.875
0
CIRCLE
8
BLACK
10
103.1875
20
-100.1712500000000006
40
0.75
0
CIRCLE
8
BLACK
10
110.8074999999999903
20
-105.2512499999999989
40
0.75
0
CIRCLE
8
BLACK
10
104.457499999999996
20
-107.7912499999999909
40
0.75
0
CIRCLE
8
BLACK
10
109.5374999999999943
20
-97.6312499999999943
40
0.75
0
CIRCLE
8
BLACK
10
178.1174999999999784
20
-76.5174999999999983
40
0.875
0
CIRCLE
8
BLACK
10
183.1974999999999909
20
-76.5174999999999983
40
2.
0
CIRCLE
8
BLACK
10
188.2775000000000034
20
-76.5174999999999983
40
0.875
0
CIRCLE
8
BLACK
10
179.3874999999999886
20
-73.977499999999992
40
0.75
0
CIRCLE
8
BLACK
10
187.0074999999999932
20
-79.0574999999999903
40
0.75
0
CIRCLE
8
BLACK
10
180.6574999999999989
20
-81.5974999999999966
40
0.75
0
CIRCLE
8
BLACK
10
185.7374999999999829
20
-71.4375
40
0.75
0
CIRCLE
8
BLACK
10
136.1724999999999852
20
-59.8862499999999969
40
1.0999999999999999
0
CIRCLE
8
BLACK
10
207.3725000000000023
20
-107.0862499999999926
40
1.0999999999999999
0
CIRCLE
8
BLACK
10
200.5012499999999989
20
-51.6937499999999943
40
0.51
0
CIRCLE
8
BLACK
10
200.5012499999999989
20
-54.2337500000000006
40
0.51
0
CIRCLE
8
BLACK
10
200.5012499999999989
20
-56.7737499999999997
40
0.51
0
CIRCLE
8
BLACK
10
200.5012499999999989
20
-59.3137499999999989
40
0.51
0
CIRCLE
8
BLACK
10
200.5012499999999989
20
-61.853749999999998
40
0.51
0
CIRCLE
8
BLACK
10
200.5012499999999989
20
-64.3937499999999972
40
0.51
0
CIRCLE
8
BLACK
10
200.5012499999999989
20
-66.9337500000000034
40
0.51
0
CIRCLE
8
BLACK
10
200.5012499999999989
20
-69.4737499999999955
40
0.51
0
CIRCLE
8
BLACK
10
200.5012499999999989
20
-72.0137500000000017
40
0.51
0
CIRCLE
8
BLACK
10
200.5012499999999989
20
-74.5537499999999937
40
0.51
0
CIRCLE
8
BLACK
10
200.5012499999999989
20
-77.09375
40
0.51
0
CIRCLE
8
BLACK
10
200.5012499999999989
20
-79.633749999999992
40
0.51
0
CIRCLE
8
BLACK
10
200.5012499999999989
20
-82.1737499999999983
40
0.51
0
CIRCLE
8
BLACK
10
200.5012499999999989
20
-84.7137499999999903
40
0.51
0
CIRCLE
8
BLACK
10
200.5012499999999989
20
-87.2537499999999966
40
0.51
0
CIRCLE
8
BLACK
10
200.5012499999999989
20
-89.7937500000000028
40
0.51
0
CIRCLE
8
BLACK
10
200.5012499999999989
20
-92.3337499999999949
40
0.51
0
CIRCLE
8
BLACK
10
200.5012499999999989
20
-94.8737500000000011
40
0.51
0
CIRCLE
8
BLACK
10
200.5012499999999989
20
-97.4137499999999932
40
0.51
0
CIRCLE
8
BLACK
10
200.5012499999999989
20
-99.9537499999999994
40
0.51
0
CIRCLE
8
BLACK
10
218.28125
20
-99.9537499999999994
40
0.51
0
CIRCLE
8
BLACK
10
218.28125
20
-97.4137499999999932
40
0.51
0
CIRCLE
8
BLACK
10
218.28125
20
-94.8737500000000011
40
0.51
0
CIRCLE
8
BLACK
10
218.28125
20
-92.3337499999999949
40
0.51
0
CIRCLE
8
BLACK
10
218.28125
20
-89.7937500000000028
40
0.51
0
CIRCLE
8
BLACK
10
218.28125
20
-87.2537499999999966
40
0.51
0
CIRCLE
8
BLACK
10
218.28125
20
-84.7137499999999903
40
0.51
0
CIRCLE
8
BLACK
10
218.28125
20
-82.1737499999999983
40
0.51
0
CIRCLE
8
BLACK
10
218.28125
20
-79.633749999999992
40
0.51
0
CIRCLE
8
BLACK
10
218.28125
20
-77.09375
40
0.51
0
CIRCLE
8
BLACK
10
218.28125
20
-74.5537499999999937
40
0.51
0
CIRCLE
8
BLACK
10
218.28125
20
-72.0137500000000017
40
0.51
0
CIRCLE
8
BLACK
10
218.28125
20
-69.4737499999999955
40
0.51
0
CIRCLE
8
BLACK
10
218.28125
20
-66.9337500000000034
40
0.51
0
CIRCLE
8
BLACK
10
218.28125
20
-64.3937499999999972
40
0.51
0
CIRCLE
8
BLACK
10
218.28125
20
-61.853749999999998
40
0.51
0
CIRCLE
8
BLACK
10
218.28125
20
-59.3137499999999989
40
0.51
0
CIRCLE
8
BLACK
10
218.28125
20
-56.7737499999999997
40
0.51
0
CIRCLE
8
BLACK
10
218.28125
20
-54.2337500000000006
40
0.51
0
CIRCLE
8
BLACK
10
218.28125
20
-51.6937499999999943
40
0.51
0
CIRCLE
8
BLACK
10
206.8512499999999932
20
-99.7237499999999955
40
0.51
0
CIRCLE
8
BLACK
10
209.3912499999999852
20
-99.7237499999999955
40
0.51
0
CIRCLE
8
BLACK
10
211.9312499999999773
20
-99.7237499999999955
40
0.51
0
CIRCLE
8
BLACK
10
120.9675000000000011
20
-93.1862500000000011
40
0.875
0
CIRCLE
8
BLACK
10
126.0474999999999994
20
-93.1862500000000011
40
2.
0
CIRCLE
8
BLACK
10
131.1274999999999977
20
-93.1862500000000011
40
0.875
0
CIRCLE
8
BLACK
10
122.2374999999999972
20
-90.6462499999999949
40
0.75
0
CIRCLE
8
BLACK
10
129.8574999999999875
20
-95.7262499999999932
40
0.75
0
CIRCLE
8
BLACK
10
123.5074999999999932
20
-98.2662499999999994
40
0.75
0
CIRCLE
8
BLACK
10
128.5875000000000057
20
-88.1062500000000028
40
0.75
0
CIRCLE
8
BLACK
10
159.0674999999999955
20
-74.1362499999999898
40
0.875
0
CIRCLE
8
BLACK
10
164.1474999999999795
20
-74.1362499999999898
40
2.
0
CIRCLE
8
BLACK
10
169.227499999999992
20
-74.1362499999999898
40
0.875
0
CIRCLE
8
BLACK
10
160.3375000000000057
20
-71.5962499999999977
40
0.75
0
CIRCLE
8
BLACK
10
167.9574999999999818
20
-76.676249999999996
40
0.75
0
CIRCLE
8
BLACK
10
161.6074999999999875
20
-79.2162500000000023
40
0.75
0
CIRCLE
8
BLACK
10
166.6875
20
-69.0562499999999915
40
0.75
  0
ENDSEC
  0
EOF
