M48
; DRILL file {KiCad 8.0.7} date 2024-12-28T18:29:37+0530
; FORMAT={-:-/ absolute / inch / decimal}
; #@! TF.CreationDate,2024-12-28T18:29:37+05:30
; #@! TF.GenerationSoftware,Kicad,Pcbnew,8.0.7
; #@! TF.FileFunction,NonPlated,1,2,NPTH
FMAT,2
INCH
; #@! TA.AperFunction,NonPlated,NPTH,ComponentDrill
T1C0.0315
; #@! TA.AperFunction,NonPlated,NPTH,ComponentDrill
T2C0.0689
; #@! TA.AperFunction,NonPlated,NPTH,ComponentDrill
T3C0.0866
; #@! TA.AperFunction,NonPlated,NPTH,ComponentDrill
T4C0.1575
%
G90
G05
T1
X8.4666Y-4.2991
X8.7422Y-4.2991
T2
X4.0125Y-2.5437
X4.0125Y-3.2937
X4.0125Y-4.0438
X4.4125Y-2.5437
X4.4125Y-3.2937
X4.4125Y-4.0438
X4.7625Y-2.1687
X4.7625Y-2.9187
X4.7625Y-3.6687
X5.1625Y-2.1687
X5.1625Y-2.9187
X5.1625Y-3.6687
X5.5125Y-1.9812
X5.5125Y-2.7312
X5.5125Y-3.4812
X5.9125Y-1.9812
X5.9125Y-2.7312
X5.9125Y-3.4812
X6.2625Y-2.1687
X6.2625Y-2.9187
X6.2625Y-3.6687
X6.3102Y-4.514
X6.6625Y-2.1687
X6.6625Y-2.9187
X6.6625Y-3.6687
X6.7087Y-4.5489
X7.0125Y-2.2625
X7.0125Y-3.0125
X7.0125Y-3.7625
X7.1459Y-4.6023
X7.4125Y-2.2625
X7.4125Y-3.0125
X7.4125Y-3.7625
X7.5398Y-4.6718
X7.9821Y-4.7837
X8.3684Y-4.8872
T3
X4.6092Y-3.2947
X5.3611Y-2.3577
X6.0698Y-3.1097
X6.8178Y-4.0428
X7.6406Y-2.0743
X8.1643Y-4.216
T4
X4.2125Y-2.5437
X4.2125Y-3.2937
X4.2125Y-4.0438
X4.9625Y-2.1687
X4.9625Y-2.9187
X4.9625Y-3.6687
X5.7125Y-1.9812
X5.7125Y-2.7312
X5.7125Y-3.4812
X6.4625Y-2.1687
X6.4625Y-2.9187
X6.4625Y-3.6687
X6.5095Y-4.5314
X7.2125Y-2.2625
X7.2125Y-3.0125
X7.2125Y-3.7625
X7.3429Y-4.637
X8.1753Y-4.8354
M30
