M48
; DRILL file {KiCad 8.0.7} date 2024-12-28T18:29:37+0530
; FORMAT={-:-/ absolute / inch / decimal}
; #@! TF.CreationDate,2024-12-28T18:29:37+05:30
; #@! TF.GenerationSoftware,Kicad,Pcbnew,8.0.7
; #@! TF.FileFunction,Plated,1,2,PTH
FMAT,2
INCH
; #@! TA.AperFunction,Plated,PTH,ComponentDrill
T1C0.0402
; #@! TA.AperFunction,Plated,PTH,ComponentDrill
T2C0.0591
%
G90
G05
T1
X7.8937Y-2.0352
X7.8937Y-2.1352
X7.8937Y-2.2352
X7.8937Y-2.3352
X7.8937Y-2.4352
X7.8937Y-2.5352
X7.8937Y-2.6352
X7.8937Y-2.7352
X7.8937Y-2.8352
X7.8937Y-2.9352
X7.8937Y-3.0352
X7.8937Y-3.1352
X7.8937Y-3.2352
X7.8937Y-3.3352
X7.8937Y-3.4352
X7.8937Y-3.5352
X7.8937Y-3.6352
X7.8937Y-3.7352
X7.8937Y-3.8352
X7.8937Y-3.9352
X8.1437Y-3.9261
X8.2438Y-3.9261
X8.3438Y-3.9261
X8.5938Y-2.0352
X8.5938Y-2.1352
X8.5938Y-2.2352
X8.5938Y-2.3352
X8.5938Y-2.4352
X8.5938Y-2.5352
X8.5938Y-2.6352
X8.5938Y-2.7352
X8.5938Y-2.8352
X8.5938Y-2.9352
X8.5938Y-3.0352
X8.5938Y-3.1352
X8.5938Y-3.2352
X8.5938Y-3.3352
X8.5938Y-3.4352
X8.5938Y-3.5352
X8.5938Y-3.6352
X8.5938Y-3.7352
X8.5938Y-3.8352
X8.5938Y-3.9352
T2
X4.0625Y-2.4438
X4.0625Y-3.1938
X4.0625Y-3.9438
X4.1125Y-2.7437
X4.1125Y-3.4937
X4.1125Y-4.2437
X4.3125Y-2.3438
X4.3125Y-3.0938
X4.3125Y-3.8438
X4.3625Y-2.6437
X4.3625Y-3.3937
X4.3625Y-4.1437
X4.8125Y-2.0688
X4.8125Y-2.8188
X4.8125Y-3.5688
X4.8625Y-2.3687
X4.8625Y-3.1187
X4.8625Y-3.8687
X5.0625Y-1.9688
X5.0625Y-2.7188
X5.0625Y-3.4688
X5.1125Y-2.2687
X5.1125Y-3.0187
X5.1125Y-3.7687
X5.5625Y-1.8812
X5.5625Y-2.6313
X5.5625Y-3.3813
X5.6125Y-2.1812
X5.6125Y-2.9312
X5.6125Y-3.6812
X5.8125Y-1.7812
X5.8125Y-2.5312
X5.8125Y-3.2812
X5.8625Y-2.0812
X5.8625Y-2.8312
X5.8625Y-3.5812
X6.3125Y-2.0688
X6.3125Y-2.8188
X6.3125Y-3.5688
X6.3625Y-2.3687
X6.3625Y-3.1187
X6.3625Y-3.8687
X6.3687Y-4.4188
X6.3924Y-4.722
X6.5625Y-1.9688
X6.5625Y-2.7188
X6.5625Y-3.4688
X6.6125Y-2.2687
X6.6125Y-3.0187
X6.6125Y-3.7687
X6.6265Y-4.3409
X6.6502Y-4.6441
X7.0625Y-2.1625
X7.0625Y-2.9125
X7.0625Y-3.6625
X7.1125Y-2.4625
X7.1125Y-3.2125
X7.1125Y-3.9625
X7.2096Y-4.8166
X7.2125Y-4.5125
X7.3125Y-2.0625
X7.3125Y-2.8125
X7.3125Y-3.5625
X7.3625Y-2.3625
X7.3625Y-3.1125
X7.3625Y-3.8625
X7.4732Y-4.7616
X7.4761Y-4.4574
X8.0269Y-5.0027
X8.0563Y-4.7
X8.2943Y-4.9708
X8.3236Y-4.6681
M30
