<?xml version="1.0" encoding="UTF-8" standalone="no"?>
<svg
   version="1.1"
   width="147.7772mm"
   height="119.1768mm"
   viewBox="0.0000 0.0000 147.7772 119.1768"
   id="svg40"
   sodipodi:docname="split-Edge_Cuts.svg"
   inkscape:version="1.4 (e7c3feb100, 2024-10-09)"
   xmlns:inkscape="http://www.inkscape.org/namespaces/inkscape"
   xmlns:sodipodi="http://sodipodi.sourceforge.net/DTD/sodipodi-0.dtd"
   xmlns="http://www.w3.org/2000/svg"
   xmlns:svg="http://www.w3.org/2000/svg">
  <defs
     id="defs40" />
  <sodipodi:namedview
     id="namedview40"
     pagecolor="#ffffff"
     bordercolor="#000000"
     borderopacity="0.25"
     inkscape:showpageshadow="2"
     inkscape:pageopacity="0.0"
     inkscape:pagecheckerboard="0"
     inkscape:deskcolor="#d1d1d1"
     inkscape:document-units="mm"
     inkscape:zoom="1.8848571"
     inkscape:cx="279.06624"
     inkscape:cy="225.21601"
     inkscape:window-width="1920"
     inkscape:window-height="1060"
     inkscape:window-x="0"
     inkscape:window-y="20"
     inkscape:window-maximized="1"
     inkscape:current-layer="svg40" />
  <title
     id="title1">SVG Image created as split-Edge_Cuts.svg date 2024/12/28 17:11:26 </title>
  <desc
     id="desc1">Image generated by PCBNEW </desc>
  <g
     style="fill:#000000; fill-opacity:1.0000;stroke:#000000; stroke-opacity:1.0000; stroke-linecap:round; stroke-linejoin:round;"
     transform="translate(0 0) scale(1 1)"
     id="g1" />
  <g
     style="fill:none;  stroke:#D0D2CD; stroke-width:0.0500; stroke-opacity:1;  stroke-linecap:round; stroke-linejoin:round;"
     id="g20">
    <path
       d="M64.2500 14.3750 L83.3000 14.3750 "
       id="path1" />
    <path
       d="M45.2000 71.5250 L45.2000 66.7625 "
       id="path2" />
    <path
       d="M7.1000 23.9000 L7.1000 81.0500 "
       id="path3" />
    <path
       d="M83.3000 16.7562 L102.3500 16.7562 "
       id="path4" />
    <path
       d="M7.1000 23.9000 L26.1500 23.9000 "
       id="path5" />
    <path
       d="M133.3063 81.0500 L126.3784 104.1366 "
       id="path6" />
    <path
       d="M83.3000 14.3750 L83.3000 16.7562 "
       id="path7" />
    <path
       d="M64.2500 92.9562 L126.3784 104.1366 "
       id="path8" />
    <path
       d="M64.2500 66.7625 L64.2500 92.9562 "
       id="path9" />
    <path
       d="M45.2000 14.3750 L45.2000 9.6125 "
       id="path10" />
    <path
       d="M102.3500 16.7562 L133.3102 16.7562 "
       id="path11" />
    <path
       d="M26.1500 81.0500 L26.1500 71.5250 "
       id="path12" />
    <path
       d="M26.1500 23.9000 L26.1500 14.3750 "
       id="path13" />
    <path
       d="M7.1000 81.0500 L26.1500 81.0500 "
       id="path14" />
    <path
       d="M26.1500 71.5250 L45.2000 71.5250 "
       id="path15" />
    <path
       d="M64.2500 9.6125 L64.2500 14.3750 "
       id="path16" />
    <path
       d="M45.2000 9.6125 L64.2500 9.6125 "
       id="path17" />
    <path
       d="M133.3102 16.7562 L133.3063 81.0500 "
       id="path18" />
    <path
       d="M26.1500 14.3750 L45.2000 14.3750 "
       id="path19" />
    <path
       d="M45.2000 66.7625 L64.2500 66.7625 "
       id="path20" />
  </g>
  <g
     style="fill:#ff9191;stroke:#D0D2CD;stroke-width:0.05;stroke-opacity:1;stroke-linecap:round;stroke-linejoin:round;fill-opacity:1"
     id="g40">
    <path
       d="M64.2500 14.3750 L83.3000 14.3750 "
       id="path21"
       style="fill:#ff9191;fill-opacity:1" />
    <path
       d="M45.2000 71.5250 L45.2000 66.7625 "
       id="path22"
       style="fill:#ff9191;fill-opacity:1" />
    <path
       d="M7.1000 23.9000 L7.1000 81.0500 "
       id="path23"
       style="fill:#ff9191;fill-opacity:1" />
    <path
       d="M83.3000 16.7562 L102.3500 16.7562 "
       id="path24"
       style="fill:#ff9191;fill-opacity:1" />
    <path
       d="M7.1000 23.9000 L26.1500 23.9000 "
       id="path25"
       style="fill:#ff9191;fill-opacity:1" />
    <path
       d="M133.3063 81.0500 L126.3784 104.1366 "
       id="path26"
       style="fill:#ff9191;fill-opacity:1" />
    <path
       d="M83.3000 14.3750 L83.3000 16.7562 "
       id="path27"
       style="fill:#ff9191;fill-opacity:1" />
    <path
       d="M64.2500 92.9562 L126.3784 104.1366 "
       id="path28"
       style="fill:#ff9191;fill-opacity:1" />
    <path
       d="M64.2500 66.7625 L64.2500 92.9562 "
       id="path29"
       style="fill:#ff9191;fill-opacity:1" />
    <path
       d="M45.2000 14.3750 L45.2000 9.6125 "
       id="path30"
       style="fill:#ff9191;fill-opacity:1" />
    <path
       d="M102.3500 16.7562 L133.3102 16.7562 "
       id="path31"
       style="fill:#ff9191;fill-opacity:1" />
    <path
       d="M26.1500 81.0500 L26.1500 71.5250 "
       id="path32"
       style="fill:#ff9191;fill-opacity:1" />
    <path
       d="M26.1500 23.9000 L26.1500 14.3750 "
       id="path33"
       style="fill:#ff9191;fill-opacity:1" />
    <path
       d="M7.1000 81.0500 L26.1500 81.0500 "
       id="path34"
       style="fill:#ff9191;fill-opacity:1" />
    <path
       d="M26.1500 71.5250 L45.2000 71.5250 "
       id="path35"
       style="fill:#ff9191;fill-opacity:1" />
    <path
       d="M64.2500 9.6125 L64.2500 14.3750 "
       id="path36"
       style="fill:#ff9191;fill-opacity:1" />
    <path
       d="M45.2000 9.6125 L64.2500 9.6125 "
       id="path37"
       style="fill:#ff9191;fill-opacity:1" />
    <path
       d="M133.3102 16.7562 L133.3063 81.0500 "
       id="path38"
       style="fill:#ff9191;fill-opacity:1" />
    <path
       d="M26.1500 14.3750 L45.2000 14.3750 "
       id="path39"
       style="fill:#ff9191;fill-opacity:1" />
    <path
       d="M45.2000 66.7625 L64.2500 66.7625 "
       id="path40"
       style="fill:#ff9191;fill-opacity:1" />
  </g>
  <path
     style="fill:#dddddd;fill-opacity:1;stroke-width:0.530544"
     d="m 359.57632,372.00966 -116.58708,-21.025 v -49.48809 -49.48808 h -36.34228 -36.34228 v 9.01925 9.01925 H 134.49295 98.681219 v 18.0385 18.03851 H 62.869486 27.057753 V 198.42353 90.723056 H 63.134758 99.211763 V 72.684553 54.646051 h 36.077007 36.077 V 45.6268 36.607549 h 35.54646 35.54646 v 9.019251 9.019251 h 36.07701 36.077 v 4.509626 4.509625 h 94.43687 94.43686 V 184.90496 306.14461 l -12.75777,42.56586 c -7.01678,23.41123 -12.88212,42.98367 -13.03409,43.49432 -0.15197,0.51065 -0.55865,0.90627 -0.90374,0.87916 -0.34508,-0.0271 -53.09161,-9.51054 -117.21451,-21.07429 z"
     id="path41"
     transform="scale(0.26458333)" />
</svg>
