<?xml version="1.0" standalone="no"?>
 <!DOCTYPE svg PUBLIC "-//W3C//DTD SVG 1.1//EN" 
 "http://www.w3.org/Graphics/SVG/1.1/DTD/svg11.dtd"> 
<svg
  xmlns:svg="http://www.w3.org/2000/svg"
  xmlns="http://www.w3.org/2000/svg"
  xmlns:xlink="http://www.w3.org/1999/xlink"
  version="1.1"
  width="163.8808mm" height="119.1768mm" viewBox="0.0000 0.0000 163.8808 119.1768">
<title>SVG Image created as split-User_Eco1.svg date 2024/12/30 00:13:54 </title>
  <desc>Image generated by PCBNEW </desc>
<g style="fill:#000000; fill-opacity:1.0000;stroke:#000000; stroke-opacity:1.0000;
stroke-linecap:round; stroke-linejoin:round;"
 transform="translate(0 0) scale(1 1)">
</g>
<g style="fill:none; 
stroke:#B4DBD2; stroke-width:0.1000; stroke-opacity:1; 
stroke-linecap:round; stroke-linejoin:round;">
<path d="M77.8844 90.2757
L91.8311 91.4959
" />
<path d="M79.1046 76.3289
L77.8844 90.2757
" />
<path d="M91.8311 91.4959
L93.0513 77.5491
" />
<path d="M93.0513 77.5491
L79.1046 76.3289
" />
<path d="M20.1250 26.4250
L20.1250 40.4250
" />
<path d="M20.1250 40.4250
L34.1250 40.4250
" />
<path d="M34.1250 26.4250
L20.1250 26.4250
" />
<path d="M34.1250 40.4250
L34.1250 26.4250
" />
<path d="M98.5269 92.2724
L112.3142 94.7035
" />
<path d="M100.9579 78.4851
L98.5269 92.2724
" />
<path d="M112.3142 94.7035
L114.7452 80.9161
" />
<path d="M114.7452 80.9161
L100.9579 78.4851
" />
<path d="M77.2750 16.9000
L77.2750 30.9000
" />
<path d="M77.2750 30.9000
L91.2750 30.9000
" />
<path d="M91.2750 16.9000
L77.2750 16.9000
" />
<path d="M91.2750 30.9000
L91.2750 16.9000
" />
<path d="M96.3250 19.2812
L96.3250 33.2812
" />
<path d="M96.3250 33.2812
L110.3250 33.2812
" />
<path d="M110.3250 19.2812
L96.3250 19.2812
" />
<path d="M110.3250 33.2812
L110.3250 19.2812
" />
<path d="M77.2750 55.0000
L77.2750 69.0000
" />
<path d="M77.2750 69.0000
L91.2750 69.0000
" />
<path d="M91.2750 55.0000
L77.2750 55.0000
" />
<path d="M91.2750 69.0000
L91.2750 55.0000
" />
<path d="M119.2058 96.5831
L132.7288 100.2065
" />
<path d="M122.8293 83.0601
L119.2058 96.5831
" />
<path d="M132.7288 100.2065
L136.3522 86.6836
" />
<path d="M136.3522 86.6836
L122.8293 83.0601
" />
<path d="M96.3250 57.3812
L96.3250 71.3812
" />
<path d="M96.3250 71.3812
L110.3250 71.3812
" />
<path d="M110.3250 57.3812
L96.3250 57.3812
" />
<path d="M110.3250 71.3812
L110.3250 57.3812
" />
<path d="M58.2250 12.1375
L58.2250 26.1375
" />
<path d="M58.2250 26.1375
L72.2250 26.1375
" />
<path d="M72.2250 12.1375
L58.2250 12.1375
" />
<path d="M72.2250 26.1375
L72.2250 12.1375
" />
<path d="M58.2250 31.1875
L58.2250 45.1875
" />
<path d="M58.2250 45.1875
L72.2250 45.1875
" />
<path d="M72.2250 31.1875
L58.2250 31.1875
" />
<path d="M72.2250 45.1875
L72.2250 31.1875
" />
<path d="M39.1750 35.9500
L39.1750 49.9500
" />
<path d="M39.1750 49.9500
L53.1750 49.9500
" />
<path d="M53.1750 35.9500
L39.1750 35.9500
" />
<path d="M53.1750 49.9500
L53.1750 35.9500
" />
<path d="M58.2250 50.2375
L58.2250 64.2375
" />
<path d="M58.2250 64.2375
L72.2250 64.2375
" />
<path d="M72.2250 50.2375
L58.2250 50.2375
" />
<path d="M72.2250 64.2375
L72.2250 50.2375
" />
<path d="M20.1250 45.4750
L20.1250 59.4750
" />
<path d="M20.1250 59.4750
L34.1250 59.4750
" />
<path d="M34.1250 45.4750
L20.1250 45.4750
" />
<path d="M34.1250 59.4750
L34.1250 45.4750
" />
<path d="M39.1750 16.9000
L39.1750 30.9000
" />
<path d="M39.1750 30.9000
L53.1750 30.9000
" />
<path d="M53.1750 16.9000
L39.1750 16.9000
" />
<path d="M53.1750 30.9000
L53.1750 16.9000
" />
<path d="M20.1250 64.5250
L20.1250 78.5250
" />
<path d="M20.1250 78.5250
L34.1250 78.5250
" />
<path d="M34.1250 64.5250
L20.1250 64.5250
" />
<path d="M34.1250 78.5250
L34.1250 64.5250
" />
<path d="M96.3250 38.3312
L96.3250 52.3312
" />
<path d="M96.3250 52.3312
L110.3250 52.3312
" />
<path d="M110.3250 38.3312
L96.3250 38.3312
" />
<path d="M110.3250 52.3312
L110.3250 38.3312
" />
<path d="M39.1750 55.0000
L39.1750 69.0000
" />
<path d="M39.1750 69.0000
L53.1750 69.0000
" />
<path d="M53.1750 55.0000
L39.1750 55.0000
" />
<path d="M53.1750 69.0000
L53.1750 55.0000
" />
<path d="M77.2750 35.9500
L77.2750 49.9500
" />
<path d="M77.2750 49.9500
L91.2750 49.9500
" />
<path d="M91.2750 35.9500
L77.2750 35.9500
" />
<path d="M91.2750 49.9500
L91.2750 35.9500
" />
</g>
<g style="fill:none; 
stroke:#D0D2CD; stroke-width:0.0500; stroke-opacity:1; 
stroke-linecap:round; stroke-linejoin:round;">
<path d="M74.7500 14.3750
L93.8000 14.3750
" />
<path d="M55.7000 71.5250
L55.7000 66.7625
" />
<path d="M17.6000 23.9000
L17.6000 81.0500
" />
<path d="M93.8000 16.7562
L112.8500 16.7562
" />
<path d="M17.6000 23.9000
L36.6500 23.9000
" />
<path d="M143.8063 81.0500
L136.8784 104.1366
" />
<path d="M93.8000 14.3750
L93.8000 16.7562
" />
<path d="M74.7500 92.9562
L136.8784 104.1366
" />
<path d="M74.7500 66.7625
L74.7500 92.9562
" />
<path d="M55.7000 14.3750
L55.7000 9.6125
" />
<path d="M112.8500 16.7562
L143.8102 16.7562
" />
<path d="M36.6500 81.0500
L36.6500 71.5250
" />
<path d="M36.6500 23.9000
L36.6500 14.3750
" />
<path d="M17.6000 81.0500
L36.6500 81.0500
" />
<path d="M36.6500 71.5250
L55.7000 71.5250
" />
<path d="M74.7500 9.6125
L74.7500 14.3750
" />
<path d="M55.7000 9.6125
L74.7500 9.6125
" />
<path d="M143.8102 16.7562
L143.8063 81.0500
" />
<path d="M36.6500 14.3750
L55.7000 14.3750
" />
<path d="M55.7000 66.7625
L74.7500 66.7625
" />
</g> 
</svg>
