<?xml version="1.0" standalone="no"?>
 <!DOCTYPE svg PUBLIC "-//W3C//DTD SVG 1.1//EN" 
 "http://www.w3.org/Graphics/SVG/1.1/DTD/svg11.dtd"> 
<svg
  xmlns:svg="http://www.w3.org/2000/svg"
  xmlns="http://www.w3.org/2000/svg"
  xmlns:xlink="http://www.w3.org/1999/xlink"
  version="1.1"
  width="163.8808mm" height="119.1768mm" viewBox="0.0000 0.0000 163.8808 119.1768">
<title>SVG Image created as split-Edge_Cuts.svg date 2024/12/29 22:01:51 </title>
  <desc>Image generated by PCBNEW </desc>
<g style="fill:#000000; fill-opacity:1.0000;stroke:#000000; stroke-opacity:1.0000;
stroke-linecap:round; stroke-linejoin:round;"
 transform="translate(0 0) scale(1 1)">
</g>
<g style="fill:none; 
stroke:#D0D2CD; stroke-width:0.0500; stroke-opacity:1; 
stroke-linecap:round; stroke-linejoin:round;">
<path d="M74.7500 14.3750
L93.8000 14.3750
" />
<path d="M55.7000 71.5250
L55.7000 66.7625
" />
<path d="M17.6000 23.9000
L17.6000 81.0500
" />
<path d="M93.8000 16.7562
L112.8500 16.7562
" />
<path d="M17.6000 23.9000
L36.6500 23.9000
" />
<path d="M143.8063 81.0500
L136.8784 104.1366
" />
<path d="M93.8000 14.3750
L93.8000 16.7562
" />
<path d="M74.7500 92.9562
L136.8784 104.1366
" />
<path d="M74.7500 66.7625
L74.7500 92.9562
" />
<path d="M55.7000 14.3750
L55.7000 9.6125
" />
<path d="M112.8500 16.7562
L143.8102 16.7562
" />
<path d="M36.6500 81.0500
L36.6500 71.5250
" />
<path d="M36.6500 23.9000
L36.6500 14.3750
" />
<path d="M17.6000 81.0500
L36.6500 81.0500
" />
<path d="M36.6500 71.5250
L55.7000 71.5250
" />
<path d="M74.7500 9.6125
L74.7500 14.3750
" />
<path d="M55.7000 9.6125
L74.7500 9.6125
" />
<path d="M143.8102 16.7562
L143.8063 81.0500
" />
<path d="M36.6500 14.3750
L55.7000 14.3750
" />
<path d="M55.7000 66.7625
L74.7500 66.7625
" />
</g>
<g style="fill:none; 
stroke:#D0D2CD; stroke-width:0.0500; stroke-opacity:1; 
stroke-linecap:round; stroke-linejoin:round;">
<path d="M74.7500 14.3750
L93.8000 14.3750
" />
<path d="M55.7000 71.5250
L55.7000 66.7625
" />
<path d="M17.6000 23.9000
L17.6000 81.0500
" />
<path d="M93.8000 16.7562
L112.8500 16.7562
" />
<path d="M17.6000 23.9000
L36.6500 23.9000
" />
<path d="M143.8063 81.0500
L136.8784 104.1366
" />
<path d="M93.8000 14.3750
L93.8000 16.7562
" />
<path d="M74.7500 92.9562
L136.8784 104.1366
" />
<path d="M74.7500 66.7625
L74.7500 92.9562
" />
<path d="M55.7000 14.3750
L55.7000 9.6125
" />
<path d="M112.8500 16.7562
L143.8102 16.7562
" />
<path d="M36.6500 81.0500
L36.6500 71.5250
" />
<path d="M36.6500 23.9000
L36.6500 14.3750
" />
<path d="M17.6000 81.0500
L36.6500 81.0500
" />
<path d="M36.6500 71.5250
L55.7000 71.5250
" />
<path d="M74.7500 9.6125
L74.7500 14.3750
" />
<path d="M55.7000 9.6125
L74.7500 9.6125
" />
<path d="M143.8102 16.7562
L143.8063 81.0500
" />
<path d="M36.6500 14.3750
L55.7000 14.3750
" />
<path d="M55.7000 66.7625
L74.7500 66.7625
" />
</g> 
</svg>
